<svg xmlns="http://www.w3.org/2000/svg" viewBox="0 -50 300 310" width="300" height="240">
<defs>
  <filter id="sg" x="-50%" y="-50%" width="200%" height="200%">
    <feGaussianBlur stdDeviation="12" result="b"/><feMerge><feMergeNode in="b"/><feMergeNode in="SourceGraphic"/></feMerge>
  </filter>
  <filter id="sh" x="-30%" y="-30%" width="160%" height="160%">
    <feDropShadow dx="0" dy="1" stdDeviation="2" flood-color="#000" flood-opacity="0.06"/>
  </filter>
</defs>
<rect width="300" height="310" y="-50" fill="none"/>
<!-- Main stem lines (updated for steeper angle: left at y=140.7, right at y=27.3) -->
<line x1="60.0" y1="140.7" x2="240.0" y2="27.3" stroke="#2D6E37" stroke-width="4" stroke-linecap="round"/>
<line x1="60.0" y1="140.7" x2="240.0" y2="27.3" stroke="#4A9650" stroke-width="1.5" opacity="0.4" stroke-linecap="round"/>
<!-- Leaves along steeper line -->
<path d="M 114.0 106.7 Q 118.0 100.9 113.6 92.7 Q 109.6 101.2 114.0 106.7" fill="#4AA04A" opacity="0.6"/>
<path d="M 150.0 84.0 Q 148.6 90.9 156.0 96.7 Q 156.2 87.3 150.0 84.0" fill="#4AA04A" opacity="0.6"/>
<path d="M 186.0 61.3 Q 190.0 55.6 185.6 47.3 Q 181.6 55.9 186.0 61.3" fill="#4AA04A" opacity="0.6"/>
<!-- LEFT BLOOM moved down 30px -->
<g transform="translate(0,30)">
<circle cx="60.0" cy="110.7" r="41" fill="#00B4A0" opacity="0.06" filter="url(#sg)"/>
<g opacity="0.55">
<path d="M 60.0 110.7 Q 72.0 95.9 59.3 78.3 Q 47.4 96.4 60.0 110.7" fill="#80DDD0"/>
<path d="M 60.0 110.7 Q 78.9 113.3 87.3 93.3 Q 65.7 92.5 60.0 110.7" fill="#80DDD0"/>
<path d="M 60.0 110.7 Q 66.1 128.7 87.7 127.3 Q 78.8 107.6 60.0 110.7" fill="#80DDD0"/>
<path d="M 60.0 110.7 Q 48.4 125.8 61.7 143.0 Q 73.1 124.6 60.0 110.7" fill="#80DDD0"/>
<path d="M 60.0 110.7 Q 41.3 107.2 31.9 126.7 Q 53.5 128.6 60.0 110.7" fill="#80DDD0"/>
<path d="M 60.0 110.7 Q 53.3 92.8 31.7 95.0 Q 41.3 114.4 60.0 110.7" fill="#80DDD0"/>
</g>
<g opacity="0.8">
<path d="M 60.0 110.7 Q 71.3 106.4 69.2 92.9 Q 57.1 99.0 60.0 110.7" fill="#00B4A0"/>
<path d="M 60.0 110.7 Q 69.0 118.7 80.0 110.7 Q 69.0 102.7 60.0 110.7" fill="#00B4A0"/>
<path d="M 60.0 110.7 Q 58.1 122.6 70.8 127.5 Q 71.6 113.9 60.0 110.7" fill="#00B4A0"/>
<path d="M 60.0 110.7 Q 48.6 114.5 50.1 128.1 Q 62.5 122.5 60.0 110.7" fill="#00B4A0"/>
<path d="M 60.0 110.7 Q 50.7 103.1 40.0 111.5 Q 51.3 119.1 60.0 110.7" fill="#00B4A0"/>
<path d="M 60.0 110.7 Q 61.9 98.8 49.3 93.8 Q 48.4 107.3 60.0 110.7" fill="#00B4A0"/>
</g>
<circle cx="60.0" cy="110.7" r="7.7" fill="#2A1A0A" opacity="0.7"/>
<circle cx="60.0" cy="110.7" r="6.2" fill="#80DDD0"/>
<circle cx="58.8" cy="109.1" r="1.8" fill="white" opacity="0.4"/>
<rect x="40.0" y="57.866666666666674" width="40" height="20" rx="10" fill="white" stroke="#00B4A0" stroke-width="1" filter="url(#sh)"/>
<text x="60" y="69.86666666666667" text-anchor="middle" dominant-baseline="middle" font-family="Helvetica,Arial,sans-serif" font-size="16" font-weight="800" fill="#191923">2x</text>
<text x="60" y="157.46666666666667" text-anchor="middle" font-family="Helvetica,Arial,sans-serif" font-size="11" font-weight="500" fill="#00B4A0" opacity="0.7">2025</text>
</g>
<!-- RIGHT BLOOM moved up 40px -->
<g transform="translate(0,-40)">
<circle cx="240.0" cy="67.3" r="49" fill="#5500DD" opacity="0.06" filter="url(#sg)"/>
<g opacity="0.55">
<path d="M 240.0 67.3 Q 255.4 48.9 239.6 26.6 Q 224.3 49.1 240.0 67.3" fill="#A080EE"/>
<path d="M 240.0 67.3 Q 264.0 66.3 269.9 39.7 Q 242.9 43.5 240.0 67.3" fill="#A080EE"/>
<path d="M 240.0 67.3 Q 259.0 82.0 280.7 65.5 Q 257.6 51.0 240.0 67.3" fill="#A080EE"/>
<path d="M 240.0 67.3 Q 242.8 91.2 269.7 95.2 Q 264.0 68.5 240.0 67.3" fill="#A080EE"/>
<path d="M 240.0 67.3 Q 224.2 85.4 239.4 108.1 Q 255.2 85.9 240.0 67.3" fill="#A080EE"/>
<path d="M 240.0 67.3 Q 216.0 68.0 209.7 94.6 Q 236.7 91.1 240.0 67.3" fill="#A080EE"/>
<path d="M 240.0 67.3 Q 221.8 51.6 199.3 67.0 Q 221.5 82.7 240.0 67.3" fill="#A080EE"/>
<path d="M 240.0 67.3 Q 237.7 43.4 210.8 38.9 Q 216.0 65.6 240.0 67.3" fill="#A080EE"/>
</g>
<g opacity="0.8">
<path d="M 240.0 67.3 Q 254.0 61.4 250.7 44.5 Q 235.7 52.8 240.0 67.3" fill="#5500DD"/>
<path d="M 240.0 67.3 Q 254.6 71.7 262.8 56.6 Q 246.0 53.4 240.0 67.3" fill="#5500DD"/>
<path d="M 240.0 67.3 Q 246.1 81.2 262.9 77.8 Q 254.5 62.9 240.0 67.3" fill="#5500DD"/>
<path d="M 240.0 67.3 Q 235.3 81.8 250.1 90.4 Q 253.8 73.7 240.0 67.3" fill="#5500DD"/>
<path d="M 240.0 67.3 Q 226.6 74.4 231.2 91.0 Q 245.5 81.5 240.0 67.3" fill="#5500DD"/>
<path d="M 240.0 67.3 Q 225.5 62.9 217.1 77.9 Q 233.9 81.2 240.0 67.3" fill="#5500DD"/>
<path d="M 240.0 67.3 Q 233.1 53.8 216.5 58.1 Q 225.8 72.6 240.0 67.3" fill="#5500DD"/>
<path d="M 240.0 67.3 Q 245.4 53.2 231.1 43.7 Q 226.6 60.3 240.0 67.3" fill="#5500DD"/>
</g>
<circle cx="240.0" cy="67.3" r="9.3" fill="#2A1A0A" opacity="0.7"/>
<circle cx="240.0" cy="67.3" r="7.8" fill="#A080EE"/>
<circle cx="238.4" cy="65.4" r="2.3" fill="white" opacity="0.4"/>
<rect x="220.0" y="6.533333333333331" width="40" height="20" rx="10" fill="white" stroke="#5500DD" stroke-width="1" filter="url(#sh)"/>
<text x="240" y="18.53333333333333" text-anchor="middle" dominant-baseline="middle" font-family="Helvetica,Arial,sans-serif" font-size="16" font-weight="800" fill="#191923">4x</text>
<text x="240" y="122.13333333333333" text-anchor="middle" font-family="Helvetica,Arial,sans-serif" font-size="11" font-weight="500" fill="#5500DD" opacity="0.7">2026</text>
</g>
<text x="150" y="230" text-anchor="middle" font-family="Helvetica,Arial,sans-serif" font-size="16" font-weight="800" fill="#5500DD" opacity="0.7" letter-spacing="0.12em">ROAS GROWTH</text>
</svg>
