<svg xmlns="http://www.w3.org/2000/svg" viewBox="0 0 1200 800" width="1200" height="800">
<defs>
  <filter id="softglow" x="-50%" y="-50%" width="200%" height="200%">
    <feGaussianBlur stdDeviation="15" result="blur"/>
    <feMerge><feMergeNode in="blur"/><feMergeNode in="SourceGraphic"/></feMerge>
  </filter>
  <filter id="shadow" x="-20%" y="-20%" width="140%" height="140%">
    <feDropShadow dx="0" dy="2" stdDeviation="3" flood-color="#000" flood-opacity="0.08"/>
  </filter>
  <linearGradient id="bgGrad" x1="0" y1="0" x2="0" y2="1">
    <stop offset="0%" stop-color="#FFFDF8"/>
    <stop offset="100%" stop-color="#FFF8F0"/>
  </linearGradient>
</defs>
<rect width="1200" height="800" fill="url(#bgGrad)"/>
<circle cx="110" cy="573" r="0.8" fill="#E0D4C8" opacity="0.5"/>
<circle cx="130" cy="573" r="0.8" fill="#E0D4C8" opacity="0.5"/>
<circle cx="150" cy="573" r="0.8" fill="#E0D4C8" opacity="0.5"/>
<circle cx="170" cy="573" r="0.8" fill="#E0D4C8" opacity="0.5"/>
<circle cx="190" cy="573" r="0.8" fill="#E0D4C8" opacity="0.5"/>
<circle cx="210" cy="573" r="0.8" fill="#E0D4C8" opacity="0.5"/>
<circle cx="230" cy="573" r="0.8" fill="#E0D4C8" opacity="0.5"/>
<circle cx="250" cy="573" r="0.8" fill="#E0D4C8" opacity="0.5"/>
<circle cx="270" cy="573" r="0.8" fill="#E0D4C8" opacity="0.5"/>
<circle cx="290" cy="573" r="0.8" fill="#E0D4C8" opacity="0.5"/>
<circle cx="310" cy="573" r="0.8" fill="#E0D4C8" opacity="0.5"/>
<circle cx="330" cy="573" r="0.8" fill="#E0D4C8" opacity="0.5"/>
<circle cx="350" cy="573" r="0.8" fill="#E0D4C8" opacity="0.5"/>
<circle cx="370" cy="573" r="0.8" fill="#E0D4C8" opacity="0.5"/>
<circle cx="390" cy="573" r="0.8" fill="#E0D4C8" opacity="0.5"/>
<circle cx="410" cy="573" r="0.8" fill="#E0D4C8" opacity="0.5"/>
<circle cx="430" cy="573" r="0.8" fill="#E0D4C8" opacity="0.5"/>
<circle cx="450" cy="573" r="0.8" fill="#E0D4C8" opacity="0.5"/>
<circle cx="470" cy="573" r="0.8" fill="#E0D4C8" opacity="0.5"/>
<circle cx="490" cy="573" r="0.8" fill="#E0D4C8" opacity="0.5"/>
<circle cx="510" cy="573" r="0.8" fill="#E0D4C8" opacity="0.5"/>
<circle cx="530" cy="573" r="0.8" fill="#E0D4C8" opacity="0.5"/>
<circle cx="550" cy="573" r="0.8" fill="#E0D4C8" opacity="0.5"/>
<circle cx="570" cy="573" r="0.8" fill="#E0D4C8" opacity="0.5"/>
<circle cx="590" cy="573" r="0.8" fill="#E0D4C8" opacity="0.5"/>
<circle cx="610" cy="573" r="0.8" fill="#E0D4C8" opacity="0.5"/>
<circle cx="630" cy="573" r="0.8" fill="#E0D4C8" opacity="0.5"/>
<circle cx="650" cy="573" r="0.8" fill="#E0D4C8" opacity="0.5"/>
<circle cx="670" cy="573" r="0.8" fill="#E0D4C8" opacity="0.5"/>
<circle cx="690" cy="573" r="0.8" fill="#E0D4C8" opacity="0.5"/>
<circle cx="710" cy="573" r="0.8" fill="#E0D4C8" opacity="0.5"/>
<circle cx="730" cy="573" r="0.8" fill="#E0D4C8" opacity="0.5"/>
<circle cx="750" cy="573" r="0.8" fill="#E0D4C8" opacity="0.5"/>
<circle cx="770" cy="573" r="0.8" fill="#E0D4C8" opacity="0.5"/>
<circle cx="790" cy="573" r="0.8" fill="#E0D4C8" opacity="0.5"/>
<circle cx="810" cy="573" r="0.8" fill="#E0D4C8" opacity="0.5"/>
<circle cx="830" cy="573" r="0.8" fill="#E0D4C8" opacity="0.5"/>
<circle cx="850" cy="573" r="0.8" fill="#E0D4C8" opacity="0.5"/>
<circle cx="870" cy="573" r="0.8" fill="#E0D4C8" opacity="0.5"/>
<circle cx="890" cy="573" r="0.8" fill="#E0D4C8" opacity="0.5"/>
<circle cx="910" cy="573" r="0.8" fill="#E0D4C8" opacity="0.5"/>
<circle cx="930" cy="573" r="0.8" fill="#E0D4C8" opacity="0.5"/>
<circle cx="950" cy="573" r="0.8" fill="#E0D4C8" opacity="0.5"/>
<circle cx="970" cy="573" r="0.8" fill="#E0D4C8" opacity="0.5"/>
<circle cx="990" cy="573" r="0.8" fill="#E0D4C8" opacity="0.5"/>
<circle cx="1010" cy="573" r="0.8" fill="#E0D4C8" opacity="0.5"/>
<circle cx="1030" cy="573" r="0.8" fill="#E0D4C8" opacity="0.5"/>
<circle cx="1050" cy="573" r="0.8" fill="#E0D4C8" opacity="0.5"/>
<circle cx="1070" cy="573" r="0.8" fill="#E0D4C8" opacity="0.5"/>
<circle cx="1090" cy="573" r="0.8" fill="#E0D4C8" opacity="0.5"/>
<text x="94" y="573" text-anchor="end" dominant-baseline="middle" font-family="Helvetica, Arial, sans-serif" font-size="13" fill="#A89080">1x</text>
<circle cx="110" cy="487" r="0.8" fill="#E0D4C8" opacity="0.5"/>
<circle cx="130" cy="487" r="0.8" fill="#E0D4C8" opacity="0.5"/>
<circle cx="150" cy="487" r="0.8" fill="#E0D4C8" opacity="0.5"/>
<circle cx="170" cy="487" r="0.8" fill="#E0D4C8" opacity="0.5"/>
<circle cx="190" cy="487" r="0.8" fill="#E0D4C8" opacity="0.5"/>
<circle cx="210" cy="487" r="0.8" fill="#E0D4C8" opacity="0.5"/>
<circle cx="230" cy="487" r="0.8" fill="#E0D4C8" opacity="0.5"/>
<circle cx="250" cy="487" r="0.8" fill="#E0D4C8" opacity="0.5"/>
<circle cx="270" cy="487" r="0.8" fill="#E0D4C8" opacity="0.5"/>
<circle cx="290" cy="487" r="0.8" fill="#E0D4C8" opacity="0.5"/>
<circle cx="310" cy="487" r="0.8" fill="#E0D4C8" opacity="0.5"/>
<circle cx="330" cy="487" r="0.8" fill="#E0D4C8" opacity="0.5"/>
<circle cx="350" cy="487" r="0.8" fill="#E0D4C8" opacity="0.5"/>
<circle cx="370" cy="487" r="0.8" fill="#E0D4C8" opacity="0.5"/>
<circle cx="390" cy="487" r="0.8" fill="#E0D4C8" opacity="0.5"/>
<circle cx="410" cy="487" r="0.8" fill="#E0D4C8" opacity="0.5"/>
<circle cx="430" cy="487" r="0.8" fill="#E0D4C8" opacity="0.5"/>
<circle cx="450" cy="487" r="0.8" fill="#E0D4C8" opacity="0.5"/>
<circle cx="470" cy="487" r="0.8" fill="#E0D4C8" opacity="0.5"/>
<circle cx="490" cy="487" r="0.8" fill="#E0D4C8" opacity="0.5"/>
<circle cx="510" cy="487" r="0.8" fill="#E0D4C8" opacity="0.5"/>
<circle cx="530" cy="487" r="0.8" fill="#E0D4C8" opacity="0.5"/>
<circle cx="550" cy="487" r="0.8" fill="#E0D4C8" opacity="0.5"/>
<circle cx="570" cy="487" r="0.8" fill="#E0D4C8" opacity="0.5"/>
<circle cx="590" cy="487" r="0.8" fill="#E0D4C8" opacity="0.5"/>
<circle cx="610" cy="487" r="0.8" fill="#E0D4C8" opacity="0.5"/>
<circle cx="630" cy="487" r="0.8" fill="#E0D4C8" opacity="0.5"/>
<circle cx="650" cy="487" r="0.8" fill="#E0D4C8" opacity="0.5"/>
<circle cx="670" cy="487" r="0.8" fill="#E0D4C8" opacity="0.5"/>
<circle cx="690" cy="487" r="0.8" fill="#E0D4C8" opacity="0.5"/>
<circle cx="710" cy="487" r="0.8" fill="#E0D4C8" opacity="0.5"/>
<circle cx="730" cy="487" r="0.8" fill="#E0D4C8" opacity="0.5"/>
<circle cx="750" cy="487" r="0.8" fill="#E0D4C8" opacity="0.5"/>
<circle cx="770" cy="487" r="0.8" fill="#E0D4C8" opacity="0.5"/>
<circle cx="790" cy="487" r="0.8" fill="#E0D4C8" opacity="0.5"/>
<circle cx="810" cy="487" r="0.8" fill="#E0D4C8" opacity="0.5"/>
<circle cx="830" cy="487" r="0.8" fill="#E0D4C8" opacity="0.5"/>
<circle cx="850" cy="487" r="0.8" fill="#E0D4C8" opacity="0.5"/>
<circle cx="870" cy="487" r="0.8" fill="#E0D4C8" opacity="0.5"/>
<circle cx="890" cy="487" r="0.8" fill="#E0D4C8" opacity="0.5"/>
<circle cx="910" cy="487" r="0.8" fill="#E0D4C8" opacity="0.5"/>
<circle cx="930" cy="487" r="0.8" fill="#E0D4C8" opacity="0.5"/>
<circle cx="950" cy="487" r="0.8" fill="#E0D4C8" opacity="0.5"/>
<circle cx="970" cy="487" r="0.8" fill="#E0D4C8" opacity="0.5"/>
<circle cx="990" cy="487" r="0.8" fill="#E0D4C8" opacity="0.5"/>
<circle cx="1010" cy="487" r="0.8" fill="#E0D4C8" opacity="0.5"/>
<circle cx="1030" cy="487" r="0.8" fill="#E0D4C8" opacity="0.5"/>
<circle cx="1050" cy="487" r="0.8" fill="#E0D4C8" opacity="0.5"/>
<circle cx="1070" cy="487" r="0.8" fill="#E0D4C8" opacity="0.5"/>
<circle cx="1090" cy="487" r="0.8" fill="#E0D4C8" opacity="0.5"/>
<text x="94" y="487" text-anchor="end" dominant-baseline="middle" font-family="Helvetica, Arial, sans-serif" font-size="13" fill="#A89080">2x</text>
<circle cx="110" cy="400" r="0.8" fill="#E0D4C8" opacity="0.5"/>
<circle cx="130" cy="400" r="0.8" fill="#E0D4C8" opacity="0.5"/>
<circle cx="150" cy="400" r="0.8" fill="#E0D4C8" opacity="0.5"/>
<circle cx="170" cy="400" r="0.8" fill="#E0D4C8" opacity="0.5"/>
<circle cx="190" cy="400" r="0.8" fill="#E0D4C8" opacity="0.5"/>
<circle cx="210" cy="400" r="0.8" fill="#E0D4C8" opacity="0.5"/>
<circle cx="230" cy="400" r="0.8" fill="#E0D4C8" opacity="0.5"/>
<circle cx="250" cy="400" r="0.8" fill="#E0D4C8" opacity="0.5"/>
<circle cx="270" cy="400" r="0.8" fill="#E0D4C8" opacity="0.5"/>
<circle cx="290" cy="400" r="0.8" fill="#E0D4C8" opacity="0.5"/>
<circle cx="310" cy="400" r="0.8" fill="#E0D4C8" opacity="0.5"/>
<circle cx="330" cy="400" r="0.8" fill="#E0D4C8" opacity="0.5"/>
<circle cx="350" cy="400" r="0.8" fill="#E0D4C8" opacity="0.5"/>
<circle cx="370" cy="400" r="0.8" fill="#E0D4C8" opacity="0.5"/>
<circle cx="390" cy="400" r="0.8" fill="#E0D4C8" opacity="0.5"/>
<circle cx="410" cy="400" r="0.8" fill="#E0D4C8" opacity="0.5"/>
<circle cx="430" cy="400" r="0.8" fill="#E0D4C8" opacity="0.5"/>
<circle cx="450" cy="400" r="0.8" fill="#E0D4C8" opacity="0.5"/>
<circle cx="470" cy="400" r="0.8" fill="#E0D4C8" opacity="0.5"/>
<circle cx="490" cy="400" r="0.8" fill="#E0D4C8" opacity="0.5"/>
<circle cx="510" cy="400" r="0.8" fill="#E0D4C8" opacity="0.5"/>
<circle cx="530" cy="400" r="0.8" fill="#E0D4C8" opacity="0.5"/>
<circle cx="550" cy="400" r="0.8" fill="#E0D4C8" opacity="0.5"/>
<circle cx="570" cy="400" r="0.8" fill="#E0D4C8" opacity="0.5"/>
<circle cx="590" cy="400" r="0.8" fill="#E0D4C8" opacity="0.5"/>
<circle cx="610" cy="400" r="0.8" fill="#E0D4C8" opacity="0.5"/>
<circle cx="630" cy="400" r="0.8" fill="#E0D4C8" opacity="0.5"/>
<circle cx="650" cy="400" r="0.8" fill="#E0D4C8" opacity="0.5"/>
<circle cx="670" cy="400" r="0.8" fill="#E0D4C8" opacity="0.5"/>
<circle cx="690" cy="400" r="0.8" fill="#E0D4C8" opacity="0.5"/>
<circle cx="710" cy="400" r="0.8" fill="#E0D4C8" opacity="0.5"/>
<circle cx="730" cy="400" r="0.8" fill="#E0D4C8" opacity="0.5"/>
<circle cx="750" cy="400" r="0.8" fill="#E0D4C8" opacity="0.5"/>
<circle cx="770" cy="400" r="0.8" fill="#E0D4C8" opacity="0.5"/>
<circle cx="790" cy="400" r="0.8" fill="#E0D4C8" opacity="0.5"/>
<circle cx="810" cy="400" r="0.8" fill="#E0D4C8" opacity="0.5"/>
<circle cx="830" cy="400" r="0.8" fill="#E0D4C8" opacity="0.5"/>
<circle cx="850" cy="400" r="0.8" fill="#E0D4C8" opacity="0.5"/>
<circle cx="870" cy="400" r="0.8" fill="#E0D4C8" opacity="0.5"/>
<circle cx="890" cy="400" r="0.8" fill="#E0D4C8" opacity="0.5"/>
<circle cx="910" cy="400" r="0.8" fill="#E0D4C8" opacity="0.5"/>
<circle cx="930" cy="400" r="0.8" fill="#E0D4C8" opacity="0.5"/>
<circle cx="950" cy="400" r="0.8" fill="#E0D4C8" opacity="0.5"/>
<circle cx="970" cy="400" r="0.8" fill="#E0D4C8" opacity="0.5"/>
<circle cx="990" cy="400" r="0.8" fill="#E0D4C8" opacity="0.5"/>
<circle cx="1010" cy="400" r="0.8" fill="#E0D4C8" opacity="0.5"/>
<circle cx="1030" cy="400" r="0.8" fill="#E0D4C8" opacity="0.5"/>
<circle cx="1050" cy="400" r="0.8" fill="#E0D4C8" opacity="0.5"/>
<circle cx="1070" cy="400" r="0.8" fill="#E0D4C8" opacity="0.5"/>
<circle cx="1090" cy="400" r="0.8" fill="#E0D4C8" opacity="0.5"/>
<text x="94" y="400" text-anchor="end" dominant-baseline="middle" font-family="Helvetica, Arial, sans-serif" font-size="13" fill="#A89080">3x</text>
<circle cx="110" cy="313" r="0.8" fill="#E0D4C8" opacity="0.5"/>
<circle cx="130" cy="313" r="0.8" fill="#E0D4C8" opacity="0.5"/>
<circle cx="150" cy="313" r="0.8" fill="#E0D4C8" opacity="0.5"/>
<circle cx="170" cy="313" r="0.8" fill="#E0D4C8" opacity="0.5"/>
<circle cx="190" cy="313" r="0.8" fill="#E0D4C8" opacity="0.5"/>
<circle cx="210" cy="313" r="0.8" fill="#E0D4C8" opacity="0.5"/>
<circle cx="230" cy="313" r="0.8" fill="#E0D4C8" opacity="0.5"/>
<circle cx="250" cy="313" r="0.8" fill="#E0D4C8" opacity="0.5"/>
<circle cx="270" cy="313" r="0.8" fill="#E0D4C8" opacity="0.5"/>
<circle cx="290" cy="313" r="0.8" fill="#E0D4C8" opacity="0.5"/>
<circle cx="310" cy="313" r="0.8" fill="#E0D4C8" opacity="0.5"/>
<circle cx="330" cy="313" r="0.8" fill="#E0D4C8" opacity="0.5"/>
<circle cx="350" cy="313" r="0.8" fill="#E0D4C8" opacity="0.5"/>
<circle cx="370" cy="313" r="0.8" fill="#E0D4C8" opacity="0.5"/>
<circle cx="390" cy="313" r="0.8" fill="#E0D4C8" opacity="0.5"/>
<circle cx="410" cy="313" r="0.8" fill="#E0D4C8" opacity="0.5"/>
<circle cx="430" cy="313" r="0.8" fill="#E0D4C8" opacity="0.5"/>
<circle cx="450" cy="313" r="0.8" fill="#E0D4C8" opacity="0.5"/>
<circle cx="470" cy="313" r="0.8" fill="#E0D4C8" opacity="0.5"/>
<circle cx="490" cy="313" r="0.8" fill="#E0D4C8" opacity="0.5"/>
<circle cx="510" cy="313" r="0.8" fill="#E0D4C8" opacity="0.5"/>
<circle cx="530" cy="313" r="0.8" fill="#E0D4C8" opacity="0.5"/>
<circle cx="550" cy="313" r="0.8" fill="#E0D4C8" opacity="0.5"/>
<circle cx="570" cy="313" r="0.8" fill="#E0D4C8" opacity="0.5"/>
<circle cx="590" cy="313" r="0.8" fill="#E0D4C8" opacity="0.5"/>
<circle cx="610" cy="313" r="0.8" fill="#E0D4C8" opacity="0.5"/>
<circle cx="630" cy="313" r="0.8" fill="#E0D4C8" opacity="0.5"/>
<circle cx="650" cy="313" r="0.8" fill="#E0D4C8" opacity="0.5"/>
<circle cx="670" cy="313" r="0.8" fill="#E0D4C8" opacity="0.5"/>
<circle cx="690" cy="313" r="0.8" fill="#E0D4C8" opacity="0.5"/>
<circle cx="710" cy="313" r="0.8" fill="#E0D4C8" opacity="0.5"/>
<circle cx="730" cy="313" r="0.8" fill="#E0D4C8" opacity="0.5"/>
<circle cx="750" cy="313" r="0.8" fill="#E0D4C8" opacity="0.5"/>
<circle cx="770" cy="313" r="0.8" fill="#E0D4C8" opacity="0.5"/>
<circle cx="790" cy="313" r="0.8" fill="#E0D4C8" opacity="0.5"/>
<circle cx="810" cy="313" r="0.8" fill="#E0D4C8" opacity="0.5"/>
<circle cx="830" cy="313" r="0.8" fill="#E0D4C8" opacity="0.5"/>
<circle cx="850" cy="313" r="0.8" fill="#E0D4C8" opacity="0.5"/>
<circle cx="870" cy="313" r="0.8" fill="#E0D4C8" opacity="0.5"/>
<circle cx="890" cy="313" r="0.8" fill="#E0D4C8" opacity="0.5"/>
<circle cx="910" cy="313" r="0.8" fill="#E0D4C8" opacity="0.5"/>
<circle cx="930" cy="313" r="0.8" fill="#E0D4C8" opacity="0.5"/>
<circle cx="950" cy="313" r="0.8" fill="#E0D4C8" opacity="0.5"/>
<circle cx="970" cy="313" r="0.8" fill="#E0D4C8" opacity="0.5"/>
<circle cx="990" cy="313" r="0.8" fill="#E0D4C8" opacity="0.5"/>
<circle cx="1010" cy="313" r="0.8" fill="#E0D4C8" opacity="0.5"/>
<circle cx="1030" cy="313" r="0.8" fill="#E0D4C8" opacity="0.5"/>
<circle cx="1050" cy="313" r="0.8" fill="#E0D4C8" opacity="0.5"/>
<circle cx="1070" cy="313" r="0.8" fill="#E0D4C8" opacity="0.5"/>
<circle cx="1090" cy="313" r="0.8" fill="#E0D4C8" opacity="0.5"/>
<text x="94" y="313" text-anchor="end" dominant-baseline="middle" font-family="Helvetica, Arial, sans-serif" font-size="13" fill="#A89080">4x</text>
<circle cx="110" cy="227" r="0.8" fill="#E0D4C8" opacity="0.5"/>
<circle cx="130" cy="227" r="0.8" fill="#E0D4C8" opacity="0.5"/>
<circle cx="150" cy="227" r="0.8" fill="#E0D4C8" opacity="0.5"/>
<circle cx="170" cy="227" r="0.8" fill="#E0D4C8" opacity="0.5"/>
<circle cx="190" cy="227" r="0.8" fill="#E0D4C8" opacity="0.5"/>
<circle cx="210" cy="227" r="0.8" fill="#E0D4C8" opacity="0.5"/>
<circle cx="230" cy="227" r="0.8" fill="#E0D4C8" opacity="0.5"/>
<circle cx="250" cy="227" r="0.8" fill="#E0D4C8" opacity="0.5"/>
<circle cx="270" cy="227" r="0.8" fill="#E0D4C8" opacity="0.5"/>
<circle cx="290" cy="227" r="0.8" fill="#E0D4C8" opacity="0.5"/>
<circle cx="310" cy="227" r="0.8" fill="#E0D4C8" opacity="0.5"/>
<circle cx="330" cy="227" r="0.8" fill="#E0D4C8" opacity="0.5"/>
<circle cx="350" cy="227" r="0.8" fill="#E0D4C8" opacity="0.5"/>
<circle cx="370" cy="227" r="0.8" fill="#E0D4C8" opacity="0.5"/>
<circle cx="390" cy="227" r="0.8" fill="#E0D4C8" opacity="0.5"/>
<circle cx="410" cy="227" r="0.8" fill="#E0D4C8" opacity="0.5"/>
<circle cx="430" cy="227" r="0.8" fill="#E0D4C8" opacity="0.5"/>
<circle cx="450" cy="227" r="0.8" fill="#E0D4C8" opacity="0.5"/>
<circle cx="470" cy="227" r="0.8" fill="#E0D4C8" opacity="0.5"/>
<circle cx="490" cy="227" r="0.8" fill="#E0D4C8" opacity="0.5"/>
<circle cx="510" cy="227" r="0.8" fill="#E0D4C8" opacity="0.5"/>
<circle cx="530" cy="227" r="0.8" fill="#E0D4C8" opacity="0.5"/>
<circle cx="550" cy="227" r="0.8" fill="#E0D4C8" opacity="0.5"/>
<circle cx="570" cy="227" r="0.8" fill="#E0D4C8" opacity="0.5"/>
<circle cx="590" cy="227" r="0.8" fill="#E0D4C8" opacity="0.5"/>
<circle cx="610" cy="227" r="0.8" fill="#E0D4C8" opacity="0.5"/>
<circle cx="630" cy="227" r="0.8" fill="#E0D4C8" opacity="0.5"/>
<circle cx="650" cy="227" r="0.8" fill="#E0D4C8" opacity="0.5"/>
<circle cx="670" cy="227" r="0.8" fill="#E0D4C8" opacity="0.5"/>
<circle cx="690" cy="227" r="0.8" fill="#E0D4C8" opacity="0.5"/>
<circle cx="710" cy="227" r="0.8" fill="#E0D4C8" opacity="0.5"/>
<circle cx="730" cy="227" r="0.8" fill="#E0D4C8" opacity="0.5"/>
<circle cx="750" cy="227" r="0.8" fill="#E0D4C8" opacity="0.5"/>
<circle cx="770" cy="227" r="0.8" fill="#E0D4C8" opacity="0.5"/>
<circle cx="790" cy="227" r="0.8" fill="#E0D4C8" opacity="0.5"/>
<circle cx="810" cy="227" r="0.8" fill="#E0D4C8" opacity="0.5"/>
<circle cx="830" cy="227" r="0.8" fill="#E0D4C8" opacity="0.5"/>
<circle cx="850" cy="227" r="0.8" fill="#E0D4C8" opacity="0.5"/>
<circle cx="870" cy="227" r="0.8" fill="#E0D4C8" opacity="0.5"/>
<circle cx="890" cy="227" r="0.8" fill="#E0D4C8" opacity="0.5"/>
<circle cx="910" cy="227" r="0.8" fill="#E0D4C8" opacity="0.5"/>
<circle cx="930" cy="227" r="0.8" fill="#E0D4C8" opacity="0.5"/>
<circle cx="950" cy="227" r="0.8" fill="#E0D4C8" opacity="0.5"/>
<circle cx="970" cy="227" r="0.8" fill="#E0D4C8" opacity="0.5"/>
<circle cx="990" cy="227" r="0.8" fill="#E0D4C8" opacity="0.5"/>
<circle cx="1010" cy="227" r="0.8" fill="#E0D4C8" opacity="0.5"/>
<circle cx="1030" cy="227" r="0.8" fill="#E0D4C8" opacity="0.5"/>
<circle cx="1050" cy="227" r="0.8" fill="#E0D4C8" opacity="0.5"/>
<circle cx="1070" cy="227" r="0.8" fill="#E0D4C8" opacity="0.5"/>
<circle cx="1090" cy="227" r="0.8" fill="#E0D4C8" opacity="0.5"/>
<text x="94" y="227" text-anchor="end" dominant-baseline="middle" font-family="Helvetica, Arial, sans-serif" font-size="13" fill="#A89080">5x</text>
<text x="110" y="688" text-anchor="middle" font-family="Helvetica, Arial, sans-serif" font-size="13" font-weight="500" fill="#A89080">2021</text>
<text x="308" y="688" text-anchor="middle" font-family="Helvetica, Arial, sans-serif" font-size="13" font-weight="500" fill="#A89080">2022</text>
<text x="506" y="688" text-anchor="middle" font-family="Helvetica, Arial, sans-serif" font-size="13" font-weight="500" fill="#A89080">2023</text>
<text x="704" y="688" text-anchor="middle" font-family="Helvetica, Arial, sans-serif" font-size="13" font-weight="500" fill="#A89080">2024</text>
<text x="902" y="688" text-anchor="middle" font-family="Helvetica, Arial, sans-serif" font-size="13" font-weight="500" fill="#A89080">2025</text>
<text x="1100" y="688" text-anchor="middle" font-family="Helvetica, Arial, sans-serif" font-size="13" font-weight="500" fill="#A89080">2026</text>
<text x="30" y="400.0" text-anchor="middle" dominant-baseline="middle" font-family="Helvetica, Arial, sans-serif" font-size="15" fill="#A89080" transform="rotate(-90 30 400.0)">ROAS</text>
<text x="600.0" y="48" text-anchor="middle" font-family="Helvetica, Arial, sans-serif" font-size="36" font-weight="700" fill="#191923">Performance in Bloom</text>
<text x="600.0" y="80" text-anchor="middle" font-family="Helvetica, Arial, sans-serif" font-size="15" fill="#B8A090">Year-on-year ROAS growth when creative and media buying work together</text>
<path d="M 110.0 556.0 C 143.0 547.3, 242.0 522.8, 308.0 504.0 C 374.0 485.2, 440.0 463.6, 506.0 443.3 C 572.0 423.1, 638.0 405.8, 704.0 382.7 C 770.0 359.6, 836.0 333.6, 902.0 304.7 C 968.0 275.8, 1067.0 225.2, 1100.0 209.3" fill="none" stroke="#2D6E37" stroke-width="8" opacity="0.10" stroke-linecap="round"/>
<path d="M 110.0 556.0 C 143.0 547.3, 242.0 522.8, 308.0 504.0 C 374.0 485.2, 440.0 463.6, 506.0 443.3 C 572.0 423.1, 638.0 405.8, 704.0 382.7 C 770.0 359.6, 836.0 333.6, 902.0 304.7 C 968.0 275.8, 1067.0 225.2, 1100.0 209.3" fill="none" stroke="#2D6E37" stroke-width="4.5" stroke-linecap="round"/>
<path d="M 110.0 556.0 C 143.0 547.3, 242.0 522.8, 308.0 504.0 C 374.0 485.2, 440.0 463.6, 506.0 443.3 C 572.0 423.1, 638.0 405.8, 704.0 382.7 C 770.0 359.6, 836.0 333.6, 902.0 304.7 C 968.0 275.8, 1067.0 225.2, 1100.0 209.3" fill="none" stroke="#4A9650" stroke-width="1.5" opacity="0.5" stroke-linecap="round"/>
<path d="M 209.0 530.0 Q 205.9 542.4 218.9 553.5 Q 220.0 536.4 209.0 530.0" fill="#4AA04A" opacity="0.7"/>
<line x1="209.0" y1="530.0" x2="218.9" y2="553.5" stroke="#2A6A2A" stroke-width="0.7" opacity="0.4"/>
<path d="M 407.0 473.7 Q 410.9 466.3 404.4 457.1 Q 401.0 467.8 407.0 473.7" fill="#358035" opacity="0.7"/>
<line x1="407.0" y1="473.7" x2="404.4" y2="457.1" stroke="#2A6A2A" stroke-width="0.7" opacity="0.4"/>
<path d="M 605.0 413.0 Q 609.6 404.3 602.0 393.6 Q 598.0 406.1 605.0 413.0" fill="#3C8C3C" opacity="0.7"/>
<line x1="605.0" y1="413.0" x2="602.0" y2="393.6" stroke="#2A6A2A" stroke-width="0.7" opacity="0.4"/>
<path d="M 803.0 343.7 Q 806.3 336.2 799.2 327.7 Q 796.7 338.4 803.0 343.7" fill="#4AA04A" opacity="0.7"/>
<line x1="803.0" y1="343.7" x2="799.2" y2="327.7" stroke="#2A6A2A" stroke-width="0.7" opacity="0.4"/>
<path d="M 1001.0 257.0 Q 1000.6 265.3 1010.3 270.9 Q 1008.9 259.8 1001.0 257.0" fill="#3C8C3C" opacity="0.7"/>
<line x1="1001.0" y1="257.0" x2="1010.3" y2="270.9" stroke="#2A6A2A" stroke-width="0.7" opacity="0.4"/>
<path d="M 209.0 530.0 Q 213.1 532.9 216.0 529.8 Q 212.9 526.9 209.0 530.0" fill="#00B4A0" opacity="0.3"/>
<path d="M 209.0 530.0 Q 204.2 531.3 204.7 535.6 Q 208.9 535.0 209.0 530.0" fill="#00B4A0" opacity="0.3"/>
<path d="M 209.0 530.0 Q 208.8 525.0 204.6 524.5 Q 204.2 528.7 209.0 530.0" fill="#00B4A0" opacity="0.3"/>
<circle cx="209.0" cy="530.0" r="2" fill="#3D2814" opacity="0.5"/>
<path d="M 407.0 473.7 Q 410.8 476.9 414.0 474.0 Q 411.2 470.9 407.0 473.7" fill="#EE5050" opacity="0.3"/>
<path d="M 407.0 473.7 Q 402.3 475.5 403.3 479.6 Q 407.4 478.6 407.0 473.7" fill="#EE5050" opacity="0.3"/>
<path d="M 407.0 473.7 Q 406.7 468.7 402.5 468.3 Q 402.1 472.5 407.0 473.7" fill="#EE5050" opacity="0.3"/>
<circle cx="407.0" cy="473.7" r="2" fill="#3D2814" opacity="0.5"/>
<path d="M 605.0 413.0 Q 609.1 415.8 612.0 412.7 Q 608.9 409.8 605.0 413.0" fill="#00B4A0" opacity="0.3"/>
<path d="M 605.0 413.0 Q 600.1 414.1 600.4 418.3 Q 604.6 418.0 605.0 413.0" fill="#00B4A0" opacity="0.3"/>
<path d="M 605.0 413.0 Q 604.7 408.0 600.5 407.7 Q 600.1 411.9 605.0 413.0" fill="#00B4A0" opacity="0.3"/>
<circle cx="605.0" cy="413.0" r="2" fill="#3D2814" opacity="0.5"/>
<path d="M 803.0 343.7 Q 807.2 346.3 810.0 343.1 Q 806.7 340.3 803.0 343.7" fill="#EE5050" opacity="0.3"/>
<path d="M 803.0 343.7 Q 798.7 346.3 800.4 350.2 Q 804.3 348.5 803.0 343.7" fill="#EE5050" opacity="0.3"/>
<path d="M 803.0 343.7 Q 802.8 338.7 798.6 338.2 Q 798.2 342.4 803.0 343.7" fill="#EE5050" opacity="0.3"/>
<circle cx="803.0" cy="343.7" r="2" fill="#3D2814" opacity="0.5"/>
<path d="M 1001.0 257.0 Q 1004.9 260.1 1008.0 257.2 Q 1005.1 254.1 1001.0 257.0" fill="#FFC300" opacity="0.3"/>
<path d="M 1001.0 257.0 Q 996.3 258.6 997.1 262.8 Q 1001.2 262.0 1001.0 257.0" fill="#FFC300" opacity="0.3"/>
<path d="M 1001.0 257.0 Q 1000.8 252.0 996.6 251.6 Q 996.1 255.8 1001.0 257.0" fill="#FFC300" opacity="0.3"/>
<circle cx="1001.0" cy="257.0" r="2" fill="#3D2814" opacity="0.5"/>
<circle cx="110.0" cy="556.0" r="43" fill="#9B78D3" opacity="0.06" filter="url(#softglow)"/>
<g opacity="0.65">
<path d="M 110.0 556.0 Q 120.9 542.7 110.3 526.2 Q 99.4 542.5 110.0 556.0" fill="#C4AAEE"/>
<path d="M 110.0 556.0 Q 126.4 561.3 137.9 545.4 Q 118.7 541.1 110.0 556.0" fill="#C4AAEE"/>
<path d="M 110.0 556.0 Q 110.3 573.2 129.0 578.9 Q 126.9 559.4 110.0 556.0" fill="#C4AAEE"/>
<path d="M 110.0 556.0 Q 93.2 559.9 91.7 579.5 Q 110.3 573.2 110.0 556.0" fill="#C4AAEE"/>
<path d="M 110.0 556.0 Q 100.7 541.5 81.7 546.5 Q 93.8 562.0 110.0 556.0" fill="#C4AAEE"/>
</g>
<g opacity="0.85">
<path d="M 110.0 556.0 Q 121.7 553.6 121.9 540.1 Q 109.0 544.1 110.0 556.0" fill="#9B78D3"/>
<path d="M 110.0 556.0 Q 116.1 566.3 128.9 562.1 Q 121.0 551.2 110.0 556.0" fill="#9B78D3"/>
<path d="M 110.0 556.0 Q 102.0 564.9 109.9 575.9 Q 117.9 565.0 110.0 556.0" fill="#9B78D3"/>
<path d="M 110.0 556.0 Q 99.2 550.8 90.9 561.5 Q 103.6 566.1 110.0 556.0" fill="#9B78D3"/>
<path d="M 110.0 556.0 Q 111.1 544.1 98.2 540.0 Q 98.3 553.5 110.0 556.0" fill="#9B78D3"/>
</g>
<circle cx="110.0" cy="556.0" r="7.7" fill="#2A1A0A" opacity="0.8"/>
<circle cx="110.0" cy="556.0" r="6.2" fill="#C4AAEE" opacity="0.9"/>
<circle cx="108.8" cy="554.1" r="2.2" fill="white" opacity="0.4"/>
<circle cx="112.6" cy="555.1" r="1.2" fill="#3D2814" opacity="0.4"/>
<circle cx="108.4" cy="554.0" r="1.2" fill="#3D2814" opacity="0.4"/>
<circle cx="108.8" cy="556.0" r="1.2" fill="#3D2814" opacity="0.4"/>
<circle cx="109.0" cy="555.7" r="1.2" fill="#3D2814" opacity="0.4"/>
<circle cx="110.7" cy="553.3" r="1.2" fill="#3D2814" opacity="0.4"/>
<rect x="88.0" y="501.6" width="44" height="22" rx="11" fill="white" stroke="#9B78D3" stroke-width="1.2" opacity="0.92" filter="url(#shadow)"/>
<text x="110" y="514.6" text-anchor="middle" dominant-baseline="middle" font-family="Helvetica, Arial, sans-serif" font-size="12" font-weight="600" fill="#191923">1.2x</text>
<circle cx="308.0" cy="504.0" r="48" fill="#EE5050" opacity="0.06" filter="url(#softglow)"/>
<g opacity="0.65">
<path d="M 308.0 504.0 Q 320.4 488.6 308.1 469.8 Q 295.6 488.6 308.0 504.0" fill="#F8A0A0"/>
<path d="M 308.0 504.0 Q 327.7 506.0 336.7 485.3 Q 314.1 485.2 308.0 504.0" fill="#F8A0A0"/>
<path d="M 308.0 504.0 Q 315.6 522.2 338.1 520.4 Q 327.5 500.5 308.0 504.0" fill="#F8A0A0"/>
<path d="M 308.0 504.0 Q 294.6 518.5 305.6 538.1 Q 319.3 520.2 308.0 504.0" fill="#F8A0A0"/>
<path d="M 308.0 504.0 Q 288.4 501.2 278.6 521.5 Q 301.1 522.5 308.0 504.0" fill="#F8A0A0"/>
<path d="M 308.0 504.0 Q 302.2 485.1 279.7 484.7 Q 288.3 505.6 308.0 504.0" fill="#F8A0A0"/>
</g>
<g opacity="0.85">
<path d="M 308.0 504.0 Q 320.8 499.0 318.4 483.7 Q 304.6 490.7 308.0 504.0" fill="#EE5050"/>
<path d="M 308.0 504.0 Q 318.2 513.2 330.8 504.2 Q 318.3 494.9 308.0 504.0" fill="#EE5050"/>
<path d="M 308.0 504.0 Q 304.8 517.4 318.7 524.1 Q 320.9 508.8 308.0 504.0" fill="#EE5050"/>
<path d="M 308.0 504.0 Q 294.8 507.8 295.8 523.3 Q 310.3 517.6 308.0 504.0" fill="#EE5050"/>
<path d="M 308.0 504.0 Q 297.6 495.1 285.2 504.4 Q 297.9 513.3 308.0 504.0" fill="#EE5050"/>
<path d="M 308.0 504.0 Q 310.5 490.5 296.2 484.4 Q 294.9 499.9 308.0 504.0" fill="#EE5050"/>
</g>
<circle cx="308.0" cy="504.0" r="8.7" fill="#2A1A0A" opacity="0.8"/>
<circle cx="308.0" cy="504.0" r="7.2" fill="#F8A0A0" opacity="0.9"/>
<circle cx="306.6" cy="501.8" r="2.5" fill="white" opacity="0.4"/>
<circle cx="308.0" cy="506.1" r="1.2" fill="#3D2814" opacity="0.4"/>
<circle cx="306.4" cy="505.4" r="1.2" fill="#3D2814" opacity="0.4"/>
<circle cx="304.9" cy="505.7" r="1.2" fill="#3D2814" opacity="0.4"/>
<circle cx="306.6" cy="504.6" r="1.2" fill="#3D2814" opacity="0.4"/>
<circle cx="309.3" cy="503.6" r="1.2" fill="#3D2814" opacity="0.4"/>
<rect x="286.0" y="445.4" width="44" height="22" rx="11" fill="white" stroke="#EE5050" stroke-width="1.2" opacity="0.92" filter="url(#shadow)"/>
<text x="308" y="458.4" text-anchor="middle" dominant-baseline="middle" font-family="Helvetica, Arial, sans-serif" font-size="12" font-weight="600" fill="#191923">1.8x</text>
<circle cx="506.0" cy="443.3" r="52" fill="#FFC300" opacity="0.06" filter="url(#softglow)"/>
<g opacity="0.65">
<path d="M 506.0 443.3 Q 520.9 426.1 507.4 404.0 Q 492.4 425.1 506.0 443.3" fill="#FFE066"/>
<path d="M 506.0 443.3 Q 528.7 444.8 538.2 420.7 Q 512.3 421.5 506.0 443.3" fill="#FFE066"/>
<path d="M 506.0 443.3 Q 520.5 460.8 544.6 451.2 Q 526.2 432.9 506.0 443.3" fill="#FFE066"/>
<path d="M 506.0 443.3 Q 499.3 465.1 520.5 479.9 Q 525.8 454.5 506.0 443.3" fill="#FFE066"/>
<path d="M 506.0 443.3 Q 485.7 453.6 489.7 479.2 Q 511.7 465.4 506.0 443.3" fill="#FFE066"/>
<path d="M 506.0 443.3 Q 485.7 433.0 467.5 451.4 Q 491.6 460.9 506.0 443.3" fill="#FFE066"/>
<path d="M 506.0 443.3 Q 501.0 421.1 475.2 418.8 Q 483.3 443.4 506.0 443.3" fill="#FFE066"/>
</g>
<g opacity="0.85">
<path d="M 506.0 443.3 Q 520.4 436.8 516.6 419.3 Q 501.2 428.3 506.0 443.3" fill="#FFC300"/>
<path d="M 506.0 443.3 Q 520.0 450.6 531.4 436.8 Q 514.8 430.2 506.0 443.3" fill="#FFC300"/>
<path d="M 506.0 443.3 Q 508.2 459.0 526.0 460.3 Q 521.8 442.9 506.0 443.3" fill="#FFC300"/>
<path d="M 506.0 443.3 Q 495.6 455.3 506.3 469.6 Q 516.6 455.0 506.0 443.3" fill="#FFC300"/>
<path d="M 506.0 443.3 Q 490.3 441.7 484.7 458.7 Q 502.5 458.8 506.0 443.3" fill="#FFC300"/>
<path d="M 506.0 443.3 Q 496.8 430.5 480.4 437.5 Q 492.2 450.9 506.0 443.3" fill="#FFC300"/>
<path d="M 506.0 443.3 Q 509.7 428.0 493.7 420.2 Q 491.2 437.8 506.0 443.3" fill="#FFC300"/>
</g>
<circle cx="506.0" cy="443.3" r="9.8" fill="#2A1A0A" opacity="0.8"/>
<circle cx="506.0" cy="443.3" r="8.2" fill="#FFE066" opacity="0.9"/>
<circle cx="504.4" cy="440.9" r="2.9" fill="white" opacity="0.4"/>
<circle cx="505.2" cy="441.5" r="1.2" fill="#3D2814" opacity="0.4"/>
<circle cx="503.0" cy="442.8" r="1.2" fill="#3D2814" opacity="0.4"/>
<circle cx="506.4" cy="445.0" r="1.2" fill="#3D2814" opacity="0.4"/>
<circle cx="505.0" cy="441.1" r="1.2" fill="#3D2814" opacity="0.4"/>
<rect x="484.0" y="379.8333333333333" width="44" height="22" rx="11" fill="white" stroke="#FFC300" stroke-width="1.2" opacity="0.92" filter="url(#shadow)"/>
<text x="506" y="392.8333333333333" text-anchor="middle" dominant-baseline="middle" font-family="Helvetica, Arial, sans-serif" font-size="12" font-weight="600" fill="#191923">2.5x</text>
<circle cx="704.0" cy="382.7" r="57" fill="#E63278" opacity="0.06" filter="url(#softglow)"/>
<g opacity="0.65">
<path d="M 704.0 382.7 Q 720.6 363.0 705.1 338.2 Q 688.4 362.2 704.0 382.7" fill="#F090B8"/>
<path d="M 704.0 382.7 Q 729.3 377.9 732.9 348.8 Q 704.8 357.0 704.0 382.7" fill="#F090B8"/>
<path d="M 704.0 382.7 Q 723.2 399.8 748.5 385.0 Q 724.9 367.6 704.0 382.7" fill="#F090B8"/>
<path d="M 704.0 382.7 Q 708.1 408.1 737.0 412.5 Q 729.7 384.1 704.0 382.7" fill="#F090B8"/>
<path d="M 704.0 382.7 Q 688.6 403.3 705.6 427.2 Q 720.8 402.1 704.0 382.7" fill="#F090B8"/>
<path d="M 704.0 382.7 Q 678.6 386.9 674.4 415.9 Q 702.7 408.3 704.0 382.7" fill="#F090B8"/>
<path d="M 704.0 382.7 Q 684.1 366.4 659.5 382.4 Q 683.9 398.7 704.0 382.7" fill="#F090B8"/>
<path d="M 704.0 382.7 Q 701.7 357.1 673.1 350.6 Q 678.5 379.4 704.0 382.7" fill="#F090B8"/>
</g>
<g opacity="0.85">
<path d="M 704.0 382.7 Q 719.9 374.5 714.8 355.0 Q 697.8 365.9 704.0 382.7" fill="#E63278"/>
<path d="M 704.0 382.7 Q 721.1 387.8 730.9 370.1 Q 711.1 366.3 704.0 382.7" fill="#E63278"/>
<path d="M 704.0 382.7 Q 711.1 399.1 730.9 395.2 Q 721.1 377.5 704.0 382.7" fill="#E63278"/>
<path d="M 704.0 382.7 Q 697.2 399.2 713.9 410.7 Q 719.6 391.3 704.0 382.7" fill="#E63278"/>
<path d="M 704.0 382.7 Q 687.8 390.2 692.1 409.9 Q 709.5 399.7 704.0 382.7" fill="#E63278"/>
<path d="M 704.0 382.7 Q 687.3 376.3 676.3 393.2 Q 695.7 398.5 704.0 382.7" fill="#E63278"/>
<path d="M 704.0 382.7 Q 696.1 366.6 676.5 371.5 Q 687.1 388.6 704.0 382.7" fill="#E63278"/>
<path d="M 704.0 382.7 Q 710.6 366.1 693.9 354.8 Q 688.3 374.2 704.0 382.7" fill="#E63278"/>
</g>
<circle cx="704.0" cy="382.7" r="10.8" fill="#2A1A0A" opacity="0.8"/>
<circle cx="704.0" cy="382.7" r="9.3" fill="#F090B8" opacity="0.9"/>
<circle cx="702.1" cy="379.9" r="3.3" fill="white" opacity="0.4"/>
<circle cx="708.2" cy="384.4" r="1.2" fill="#3D2814" opacity="0.4"/>
<circle cx="704.6" cy="381.7" r="1.2" fill="#3D2814" opacity="0.4"/>
<circle cx="703.0" cy="382.5" r="1.2" fill="#3D2814" opacity="0.4"/>
<circle cx="703.1" cy="379.8" r="1.2" fill="#3D2814" opacity="0.4"/>
<circle cx="708.5" cy="382.1" r="1.2" fill="#3D2814" opacity="0.4"/>
<circle cx="700.4" cy="383.6" r="1.2" fill="#3D2814" opacity="0.4"/>
<rect x="682.0" y="314.26666666666665" width="44" height="22" rx="11" fill="white" stroke="#E63278" stroke-width="1.2" opacity="0.92" filter="url(#shadow)"/>
<text x="704" y="327.26666666666665" text-anchor="middle" dominant-baseline="middle" font-family="Helvetica, Arial, sans-serif" font-size="12" font-weight="600" fill="#191923">3.2x</text>
<circle cx="902.0" cy="304.7" r="64" fill="#00B4A0" opacity="0.06" filter="url(#softglow)"/>
<g opacity="0.65">
<path d="M 902.0 304.7 Q 919.0 280.5 898.7 253.6 Q 882.1 282.9 902.0 304.7" fill="#66D9CC"/>
<path d="M 902.0 304.7 Q 931.0 299.2 935.3 265.8 Q 902.9 275.2 902.0 304.7" fill="#66D9CC"/>
<path d="M 902.0 304.7 Q 927.8 319.0 952.4 296.1 Q 921.6 282.6 902.0 304.7" fill="#66D9CC"/>
<path d="M 902.0 304.7 Q 910.7 332.9 944.3 333.3 Q 931.4 302.3 902.0 304.7" fill="#66D9CC"/>
<path d="M 902.0 304.7 Q 892.0 332.4 918.6 353.0 Q 927.0 320.4 902.0 304.7" fill="#66D9CC"/>
<path d="M 902.0 304.7 Q 877.9 321.7 887.9 353.8 Q 913.4 331.9 902.0 304.7" fill="#66D9CC"/>
<path d="M 902.0 304.7 Q 872.6 301.5 859.0 332.3 Q 892.6 332.7 902.0 304.7" fill="#66D9CC"/>
<path d="M 902.0 304.7 Q 882.1 282.8 851.5 296.8 Q 876.4 319.4 902.0 304.7" fill="#66D9CC"/>
<path d="M 902.0 304.7 Q 902.0 275.1 870.0 264.8 Q 873.2 298.3 902.0 304.7" fill="#66D9CC"/>
</g>
<g opacity="0.85">
<path d="M 902.0 304.7 Q 920.6 295.9 915.4 273.3 Q 895.5 285.2 902.0 304.7" fill="#00B4A0"/>
<path d="M 902.0 304.7 Q 922.1 309.1 931.7 288.0 Q 908.7 285.3 902.0 304.7" fill="#00B4A0"/>
<path d="M 902.0 304.7 Q 914.8 320.7 935.6 310.5 Q 919.4 293.8 902.0 304.7" fill="#00B4A0"/>
<path d="M 902.0 304.7 Q 902.4 325.2 925.1 329.7 Q 922.4 306.7 902.0 304.7" fill="#00B4A0"/>
<path d="M 902.0 304.7 Q 888.4 320.0 902.0 338.8 Q 915.7 320.0 902.0 304.7" fill="#00B4A0"/>
<path d="M 902.0 304.7 Q 881.6 306.5 878.6 329.5 Q 901.4 325.2 902.0 304.7" fill="#00B4A0"/>
<path d="M 902.0 304.7 Q 884.5 293.9 868.4 310.7 Q 889.3 320.8 902.0 304.7" fill="#00B4A0"/>
<path d="M 902.0 304.7 Q 895.1 285.3 872.1 288.3 Q 882.0 309.3 902.0 304.7" fill="#00B4A0"/>
<path d="M 902.0 304.7 Q 908.7 285.3 889.0 273.2 Q 883.5 295.7 902.0 304.7" fill="#00B4A0"/>
</g>
<circle cx="902.0" cy="304.7" r="12.2" fill="#2A1A0A" opacity="0.8"/>
<circle cx="902.0" cy="304.7" r="10.7" fill="#66D9CC" opacity="0.9"/>
<circle cx="899.9" cy="301.5" r="3.7" fill="white" opacity="0.4"/>
<circle cx="904.7" cy="307.2" r="1.2" fill="#3D2814" opacity="0.4"/>
<circle cx="901.8" cy="306.7" r="1.2" fill="#3D2814" opacity="0.4"/>
<circle cx="902.2" cy="301.5" r="1.2" fill="#3D2814" opacity="0.4"/>
<circle cx="906.8" cy="303.2" r="1.2" fill="#3D2814" opacity="0.4"/>
<circle cx="904.0" cy="309.1" r="1.2" fill="#3D2814" opacity="0.4"/>
<circle cx="904.8" cy="302.5" r="1.2" fill="#3D2814" opacity="0.4"/>
<rect x="880.0" y="229.96666666666675" width="44" height="22" rx="11" fill="white" stroke="#00B4A0" stroke-width="1.2" opacity="0.92" filter="url(#shadow)"/>
<text x="902" y="242.96666666666675" text-anchor="middle" dominant-baseline="middle" font-family="Helvetica, Arial, sans-serif" font-size="12" font-weight="600" fill="#191923">4.1x</text>
<circle cx="1100.0" cy="209.3" r="71" fill="#5500DD" opacity="0.06" filter="url(#softglow)"/>
<g opacity="0.65">
<path d="M 1100.0 209.3 Q 1122.0 183.2 1101.4 150.1 Q 1079.2 182.2 1100.0 209.3" fill="#9966EE"/>
<path d="M 1100.0 209.3 Q 1132.3 198.2 1131.6 159.2 Q 1096.1 175.4 1100.0 209.3" fill="#9966EE"/>
<path d="M 1100.0 209.3 Q 1131.2 223.2 1157.2 194.2 Q 1120.3 181.8 1100.0 209.3" fill="#9966EE"/>
<path d="M 1100.0 209.3 Q 1118.6 238.0 1156.3 227.8 Q 1132.0 197.3 1100.0 209.3" fill="#9966EE"/>
<path d="M 1100.0 209.3 Q 1096.1 243.3 1131.6 259.4 Q 1132.3 220.4 1100.0 209.3" fill="#9966EE"/>
<path d="M 1100.0 209.3 Q 1079.2 236.5 1101.4 268.5 Q 1122.0 235.5 1100.0 209.3" fill="#9966EE"/>
<path d="M 1100.0 209.3 Q 1067.4 219.7 1067.3 258.7 Q 1103.2 243.4 1100.0 209.3" fill="#9966EE"/>
<path d="M 1100.0 209.3 Q 1068.1 197.0 1043.6 227.3 Q 1081.1 237.8 1100.0 209.3" fill="#9966EE"/>
<path d="M 1100.0 209.3 Q 1081.3 180.7 1043.7 191.0 Q 1068.0 221.5 1100.0 209.3" fill="#9966EE"/>
<path d="M 1100.0 209.3 Q 1102.4 175.2 1066.2 160.7 Q 1067.2 199.7 1100.0 209.3" fill="#9966EE"/>
</g>
<g opacity="0.85">
<path d="M 1100.0 209.3 Q 1120.7 197.6 1112.7 172.0 Q 1090.8 187.4 1100.0 209.3" fill="#5500DD"/>
<path d="M 1100.0 209.3 Q 1123.6 212.5 1132.7 187.2 Q 1105.9 186.3 1100.0 209.3" fill="#5500DD"/>
<path d="M 1100.0 209.3 Q 1117.3 225.7 1139.5 210.6 Q 1118.2 194.1 1100.0 209.3" fill="#5500DD"/>
<path d="M 1100.0 209.3 Q 1105.9 232.4 1132.8 231.4 Q 1123.6 206.1 1100.0 209.3" fill="#5500DD"/>
<path d="M 1100.0 209.3 Q 1091.2 231.4 1113.4 246.5 Q 1120.9 220.7 1100.0 209.3" fill="#5500DD"/>
<path d="M 1100.0 209.3 Q 1079.6 221.6 1088.2 247.0 Q 1109.8 231.0 1100.0 209.3" fill="#5500DD"/>
<path d="M 1100.0 209.3 Q 1076.4 206.1 1067.2 231.4 Q 1094.1 232.4 1100.0 209.3" fill="#5500DD"/>
<path d="M 1100.0 209.3 Q 1081.7 194.2 1060.5 210.8 Q 1082.8 225.8 1100.0 209.3" fill="#5500DD"/>
<path d="M 1100.0 209.3 Q 1094.9 186.1 1068.0 186.2 Q 1076.3 211.7 1100.0 209.3" fill="#5500DD"/>
<path d="M 1100.0 209.3 Q 1110.1 187.8 1088.8 171.5 Q 1079.8 196.8 1100.0 209.3" fill="#5500DD"/>
</g>
<circle cx="1100.0" cy="209.3" r="13.9" fill="#2A1A0A" opacity="0.8"/>
<circle cx="1100.0" cy="209.3" r="12.4" fill="#9966EE" opacity="0.9"/>
<circle cx="1097.5" cy="205.6" r="4.3" fill="white" opacity="0.4"/>
<circle cx="1099.7" cy="205.5" r="1.2" fill="#3D2814" opacity="0.4"/>
<circle cx="1101.3" cy="207.4" r="1.2" fill="#3D2814" opacity="0.4"/>
<circle cx="1103.8" cy="212.1" r="1.2" fill="#3D2814" opacity="0.4"/>
<circle cx="1098.1" cy="215.2" r="1.2" fill="#3D2814" opacity="0.4"/>
<rect x="1078.0" y="126.93333333333331" width="44" height="22" rx="11" fill="white" stroke="#5500DD" stroke-width="1.2" opacity="0.92" filter="url(#shadow)"/>
<text x="1100" y="139.9333333333333" text-anchor="middle" dominant-baseline="middle" font-family="Helvetica, Arial, sans-serif" font-size="12" font-weight="600" fill="#191923">5.2x</text>
<circle cx="574" cy="303" r="1.9" fill="#E63278" opacity="0.14"/>
<circle cx="956" cy="383" r="1.5" fill="#5500DD" opacity="0.11"/>
<circle cx="950" cy="178" r="2.2" fill="#E63278" opacity="0.13"/>
<circle cx="582" cy="212" r="1.5" fill="#5500DD" opacity="0.13"/>
<circle cx="1091" cy="336" r="2.1" fill="#E63278" opacity="0.06"/>
<circle cx="254" cy="676" r="1.2" fill="#9B78D3" opacity="0.14"/>
<circle cx="921" cy="193" r="2.5" fill="#00B4A0" opacity="0.12"/>
<circle cx="451" cy="423" r="1.0" fill="#EE5050" opacity="0.13"/>
<circle cx="838" cy="169" r="2.4" fill="#5500DD" opacity="0.09"/>
<circle cx="988" cy="581" r="1.0" fill="#EE5050" opacity="0.07"/>
<circle cx="606" cy="545" r="1.4" fill="#FFC300" opacity="0.09"/>
<circle cx="225" cy="629" r="2.3" fill="#FFC300" opacity="0.12"/>
<circle cx="929" cy="405" r="1.2" fill="#00B4A0" opacity="0.07"/>
<circle cx="616" cy="607" r="1.9" fill="#EE5050" opacity="0.13"/>
<circle cx="244" cy="191" r="2.1" fill="#00B4A0" opacity="0.11"/>
<circle cx="426" cy="405" r="1.7" fill="#00B4A0" opacity="0.13"/>
<circle cx="1000" cy="142" r="1.4" fill="#EE5050" opacity="0.13"/>
<circle cx="613" cy="430" r="1.7" fill="#9B78D3" opacity="0.11"/>
<circle cx="611" cy="402" r="1.4" fill="#5500DD" opacity="0.10"/>
<circle cx="922" cy="399" r="2.0" fill="#EE5050" opacity="0.14"/>
<circle cx="1060" cy="258" r="2.3" fill="#00B4A0" opacity="0.07"/>
<circle cx="551" cy="347" r="1.7" fill="#E63278" opacity="0.06"/>
<circle cx="338" cy="152" r="1.5" fill="#5500DD" opacity="0.06"/>
<circle cx="890" cy="646" r="2.0" fill="#5500DD" opacity="0.06"/>
<circle cx="999" cy="662" r="2.1" fill="#EE5050" opacity="0.06"/>
<circle cx="1001" cy="203" r="2.2" fill="#5500DD" opacity="0.07"/>
<circle cx="534" cy="404" r="1.6" fill="#FFC300" opacity="0.09"/>
<circle cx="185" cy="319" r="1.8" fill="#FFC300" opacity="0.09"/>
<circle cx="109" cy="299" r="1.4" fill="#00B4A0" opacity="0.15"/>
<circle cx="206" cy="634" r="2.5" fill="#EE5050" opacity="0.06"/>
<circle cx="364" cy="133" r="1.4" fill="#EE5050" opacity="0.06"/>
<circle cx="525" cy="630" r="1.6" fill="#FFC300" opacity="0.10"/>
<circle cx="620" cy="392" r="1.1" fill="#FFC300" opacity="0.06"/>
<circle cx="799" cy="352" r="1.4" fill="#9B78D3" opacity="0.05"/>
<circle cx="181" cy="259" r="2.3" fill="#00B4A0" opacity="0.06"/>
<circle cx="979" cy="369" r="2.5" fill="#FFC300" opacity="0.09"/>
<circle cx="1033" cy="464" r="1.8" fill="#9B78D3" opacity="0.07"/>
<circle cx="203" cy="202" r="1.3" fill="#9B78D3" opacity="0.14"/>
<circle cx="738" cy="413" r="1.4" fill="#EE5050" opacity="0.10"/>
<circle cx="273" cy="308" r="2.5" fill="#9B78D3" opacity="0.05"/>
<text x="600.0" y="780" text-anchor="middle" font-family="Helvetica, Arial, sans-serif" font-size="11" fill="#D8CCBB">Skip the Noise Media</text>
</svg>